<svg xmlns="http://www.w3.org/2000/svg" width="32" height="32" viewBox="0 0 32 32"><path d="M5.014 11.024c1.494-1.16 2.733-.362 4.386 1.552.187.214.437-.037.578-.16l2.429-2.178c.107-.094.235-.27.066-.467s-.79-1-1.189-1.52c-2.893-3.784 7.914-6.35 6.253-6.39-.843-.022-4.234-.061-4.739-.008-2.053.218-4.63 2.136-5.928 3.029-1.696 1.166-2.331 1.843-2.435 1.938-.48.421-.077 1.387-.947 2.15-.92.806-1.493.197-2.026.664-.266.234-1.003.786-1.216.973-.211.186-.25.501-.034.754 0 0 2.021 2.234 2.192 2.43.17.197.626.363.909.114l1.133-.995c.125-.107-.08-1.381.57-1.885zm9.135.826c-.192-.222-.429-.227-.635-.045l-2.296 2.002c-.179.16-.203.454-.042.64l13.27 15.101c.309.358.846.395 1.203.085l1.554-1.299c.354-.31.39-.854.082-1.211l-13.136-15.272zm17.694-6.428c-.118-.79-.528-.624-.741-.288-.21.334-1.154 1.762-1.541 2.406-.384.643-1.328 1.906-3.094.659-1.837-1.299-1.197-2.206-.878-2.816.322-.613 1.309-2.328 1.453-2.544.141-.216-.026-.843-.594-.581-.571.264-4.037 1.642-4.518 3.616-.491 2.011.413 3.806-1.36 5.59l-2.147 2.24 2.157 2.509 2.646-2.514c.632-.634 1.978-1.25 3.197-.973 2.613.592 4.037-.39 4.898-2.011.771-1.451.643-4.504.523-5.294zm-27.459 21.86c-.333.336-.333.88 0 1.214l1.522 1.488c.333.334.861.194 1.194-.141l7.851-7.72-2.406-2.741-8.16 7.899z" fill="#dbc3f0"/></svg>